<svg width="88" height="88" viewBox="0 0 88 88" fill="none" xmlns="http://www.w3.org/2000/svg">
<path d="M63.4746 67.0087C61.5875 69.0652 59.0353 70.7725 56.2394 72.1048C50.3022 74.9352 43.2659 76.0741 39.1674 75.2771C34.1245 74.2964 26.056 68.9309 21.7615 62.4227C20.9226 61.151 20.2277 59.836 19.7273 58.5013C18.733 55.8492 18.6777 51.9548 19.0569 47.9051C19.4914 43.26 20.4969 38.4109 21.3105 34.9977C21.9714 32.2265 22.506 30.4015 22.506 30.4015C22.506 30.4015 29.7196 19.0363 49.3541 22.8545C68.9891 26.6729 71.4207 39.9138 71.4207 39.9138C71.4207 39.9138 69.3703 60.5851 63.4746 67.0087Z" fill="#FDBEB0"></path>
<path d="M79.3195 65.3855C78.9792 67.0546 78.2301 68.5684 77.1805 69.8199C75.7159 71.566 73.6669 72.7998 71.33 73.2266C67.6917 73.8915 62.6318 73.9768 56.2399 72.1049C58.641 70.9607 60.862 69.5394 62.6367 67.8587C62.6321 65.5853 62.9195 62.4298 64.1232 59.0748C65.6912 54.7043 68.4369 47.5815 70.0769 43.3617C70.077 43.3611 70.0771 43.3606 70.0771 43.3606C70.3988 42.5316 70.6783 41.8146 70.8973 41.2527C71.2271 40.4087 71.4212 39.9138 71.4212 39.9138C71.4099 39.8575 71.3974 39.8015 71.3837 39.7464C70.3901 35.6514 64.1383 34.0665 62.3265 33.6896C62.473 32.5987 62.2217 31.4423 62.2217 31.4423C62.2115 30.5009 62.0546 29.7053 62.0546 29.7053C61.9041 31.2478 60.1292 33.1752 60.1292 33.1752C55.4841 33.1663 50.4697 31.8334 50.4697 31.8334C49.666 29.531 51.1897 24.9103 51.1897 24.9103C49.7139 25.6066 48.506 31.3621 48.506 31.3621C45.3167 31.1378 41.3731 30.0359 39.5266 29.4746C38.9201 29.29 38.4715 28.8 38.3279 28.2052C38.2927 28.061 38.2758 27.9108 38.2789 27.757C38.3154 25.8955 39.0721 23.2882 39.1013 23.1879L36.4138 28.7422C31.6966 31.4014 22.5065 30.4015 22.5065 30.4015C22.4235 30.9283 22.3487 31.4447 22.2821 31.9519C21.961 34.3927 21.8254 36.6086 21.8281 38.6139C21.8399 46.6124 24.06 51.265 25.5596 53.497C26.3256 54.6367 26.9039 55.1451 26.9039 55.1451L21.2201 54.0398C21.1236 53.8478 21.0339 53.6441 20.9513 53.4304C19.147 48.7863 20.4028 39.3052 20.4028 39.3052C20.4028 39.3052 20.4048 39.2242 20.4121 39.0723C20.4121 39.0723 20.2948 39.6027 20.1375 40.4768C18.9688 46.6671 18.1187 54.2097 19.7278 58.5014C20.2281 59.8361 20.9231 61.1511 21.7619 62.4228C20.522 62.2335 11.836 60.7814 8.24862 56.636C7.63193 55.9236 7.16565 55.1316 6.91391 54.2526C5.52649 49.4121 13.7692 23.672 30.7778 13.9827C36.2262 10.8783 42.5736 9.42141 49.7923 10.8252C58.3526 12.4899 65.4872 16.0057 70.7639 21.3695C79.8341 30.5884 83.4158 45.2663 79.3195 65.3855Z" fill="black"></path>
<path d="M20.1377 40.4767C20.2947 39.6026 20.4118 39.0723 20.4118 39.0723C20.3194 39.5311 20.2274 39.9997 20.1377 40.4767Z" fill="black"></path>
<path d="M56.2406 72.1054C56.2254 72.1007 56.2095 72.0965 56.1943 72.0918" stroke="black" stroke-miterlimit="10"></path>
<path d="M38.2197 65.6785C38.2197 65.6785 39.2376 64.5901 40.1666 64.2749C40.4128 64.1914 40.6831 64.239 40.8889 64.3978C41.0377 64.5126 41.2545 64.6416 41.5189 64.6889C41.7517 64.7306 41.9538 64.7016 42.1056 64.657C42.3417 64.5878 42.5977 64.6398 42.794 64.788C43.2369 65.1221 43.9701 65.7891 44.5414 66.8716C44.5414 66.8716 42.1797 67.4585 38.2197 65.6785Z" fill="#F57B79"></path>
<path opacity="0.2" d="M44.5414 66.8714C40.7489 65.0135 38.2197 65.6783 38.2197 65.6783C38.2197 65.6783 39.6946 64.9853 41.3789 65.2697C43.4684 65.6225 44.5414 66.8714 44.5414 66.8714Z" fill="black"></path>
<path d="M42.5492 46.6816C42.5492 46.6816 42.5481 46.6831 42.5469 46.6853" stroke="black" stroke-miterlimit="10"></path>
<path opacity="0.2" d="M38.279 27.7566C38.2759 27.9104 38.2929 28.0606 38.3281 28.2048L36.7855 30.6245C33.6416 32.93 25.2056 32.2637 22.2822 31.9515C22.3489 31.4443 22.4236 30.9279 22.5066 30.4011C22.5066 30.4011 31.6967 31.401 36.4139 28.7418L39.1014 23.1875C39.0722 23.2878 38.3156 25.8951 38.279 27.7566Z" fill="black"></path>
<path opacity="0.2" d="M62.0547 29.7051C62.0547 29.7051 62.2116 30.5008 62.2218 31.4422C61.5324 33.2137 60.1749 34.4355 60.1749 34.4355C58.591 34.9991 51.5097 33.3543 51.5097 33.3543C49.4659 32.6885 50.0132 29.6434 50.0132 29.6434C49.2665 31.2414 49.7405 32.943 49.7405 32.943C49.7405 32.943 42.3167 32.1698 40.0274 31.188C37.738 30.2067 38.328 28.205 38.328 28.205C38.4716 28.7998 38.9202 29.2898 39.5267 29.4744C41.3732 30.0357 45.3168 31.1376 48.5062 31.3619C48.5062 31.3619 49.714 25.6064 51.1898 24.9102C51.1898 24.9102 49.6661 29.5309 50.4698 31.8332C50.4698 31.8332 55.4841 33.1661 60.1293 33.175C60.1293 33.175 61.9042 31.2477 62.0547 29.7051Z" fill="black"></path>
<path opacity="0.2" d="M61.9834 34.7872C62.1696 34.4679 62.274 34.0831 62.3265 33.6895C64.1383 34.0663 70.3901 35.6512 71.3837 39.7463C66.7901 35.9316 61.9834 34.7872 61.9834 34.7872Z" fill="black"></path>
<path opacity="0.2" d="M50.8133 53.9121C47.2362 52.2514 46.2982 46.3994 46.2982 46.3994C46.2982 46.3994 45.9345 45.5135 44.9868 45.3292C44.0397 45.145 43.2342 46.0719 43.2342 46.0719C39.4415 51.1008 35.1133 51.231 35.1133 51.231C37.2643 50.8261 39.8747 49.6366 42.1057 46.6016C42.1066 46.6001 42.1073 46.5991 42.1075 46.598C42.3675 46.2446 42.6221 45.8663 42.87 45.461C42.87 45.461 43.6688 44.4308 44.9676 44.713C46.2664 44.9952 47.0642 45.9855 47.0881 46.5399C47.1027 46.8869 47.8694 51.0238 50.8133 53.9121Z" fill="black"></path>
<path opacity="0.2" d="M26.8882 53.8453L25.5596 53.4964C24.06 51.2644 21.8399 46.6118 21.8281 38.6133C21.9476 40.0118 21.7521 47.5073 26.8882 53.8453Z" fill="black"></path>
<path opacity="0.15" d="M79.3195 65.3855C78.9792 67.0546 78.2301 68.5684 77.1805 69.8199C77.1109 69.3518 77.1386 68.8399 77.1919 68.3779C77.8708 62.4604 78.8727 56.5692 79.1095 50.6175C79.3459 44.6651 78.7852 38.5766 76.4596 33.0928C71.9686 22.505 63.0831 15.6003 51.7972 13.4056C33.3266 9.81363 19.9056 26.1671 17.8892 29.789C14.2644 36.2982 11.6918 43.3594 9.57868 50.4799C9.11515 52.0418 9.06427 54.783 8.24862 56.636C7.63193 55.9236 7.16565 55.1316 6.91391 54.2526C5.52649 49.4121 13.7692 23.672 30.7778 13.9827C36.2262 10.8783 42.5736 9.42141 49.7923 10.8252C58.3526 12.4899 65.4872 16.0057 70.7639 21.3695C79.8341 30.5884 83.4158 45.2663 79.3195 65.3855Z" fill="white"></path>
<path d="M19.0571 47.9054C11.3031 45.4992 12.7897 35.3435 16.594 33.6159C19.3398 32.369 20.7371 33.979 21.3107 34.998C21.222 35.3693 21.1312 35.7573 21.0392 36.1604C20.9798 36.4223 20.9192 36.6902 20.8586 36.9639C20.1546 40.1443 19.4134 44.0934 19.0571 47.9054Z" fill="#E5A69C"></path>
<path d="M21.0397 36.1609C20.9803 36.4228 20.9197 36.6907 20.8591 36.9643C20.4493 36.1429 19.368 35.9782 19.368 35.9782C16.9954 35.7413 14.9102 40.52 14.9102 40.52C14.9102 40.52 14.0565 35.5999 17.346 34.5407C19.519 33.841 20.5742 35.1748 21.0397 36.1609Z" fill="#DD9992"></path>
<path opacity="0.15" d="M33.9912 27.7126C34.1905 26.3174 34.8041 25.0035 35.6192 23.8539C36.4342 22.7043 37.4472 21.7086 38.5087 20.782C38.3446 20.7475 38.0139 20.6136 37.8497 20.6402C37.6388 20.6743 37.6618 20.7723 37.4801 20.8966C37.2206 21.0742 37.0104 21.1644 36.7819 21.4111C36.2425 21.9934 35.7738 22.6449 35.3796 23.3334C34.5913 24.71 34.2135 26.1563 33.9912 27.7126Z" fill="white"></path>
<path opacity="0.15" d="M63.3299 31.9674C63.532 31.0316 63.735 30.0864 63.7257 29.1291C63.7164 28.1718 63.4763 27.1876 62.8767 26.4414C62.936 26.5151 62.7378 26.928 62.728 27.0404C62.7131 27.2126 62.7491 27.3327 62.7995 27.4988C62.9475 27.9866 63.0951 28.4669 63.1907 28.9689C63.3784 29.9551 63.4268 30.968 63.3299 31.9674Z" fill="white"></path>
<path opacity="0.15" d="M67.5098 55.5118C68.6477 50.57 69.5086 46.3217 70.0765 43.3609C70.0766 43.3604 70.0767 43.3598 70.0767 43.3598C70.3984 42.5308 70.6778 41.8138 70.8969 41.252C70.5804 48.1088 67.5098 55.5118 67.5098 55.5118Z" fill="white"></path>
<path opacity="0.2" d="M45.3535 59.233C43.6303 61.0506 41.3051 60.5985 41.3051 60.5985C39.4619 60.24 38.1011 57.458 38.0156 57.25C38.4252 58.1842 39.2183 58.9503 40.2894 59.2788C40.7349 59.4155 41.2217 59.5392 41.7507 59.6421C42.1414 59.7181 42.5101 59.7755 42.8582 59.8187C43.7769 59.9319 44.6483 59.7003 45.3535 59.233Z" fill="black"></path>
<path d="M45.3541 59.2321C44.6489 59.6994 43.7775 59.931 42.8587 59.8178C42.5106 59.7746 42.142 59.7172 41.7513 59.6412C41.2223 59.5383 40.7355 59.4146 40.29 59.2779C39.2189 58.9494 38.4258 58.1833 38.0162 57.2491C38.0146 57.2459 38.0129 57.2428 38.0119 57.2391C37.5771 56.2414 37.5802 55.053 38.148 54.0007C40.0851 50.4152 42.0171 46.7705 42.1063 46.6016C42.1072 46.6001 42.1079 46.5991 42.1081 46.598C42.3681 46.2446 42.6228 45.8663 42.8706 45.461C42.8706 45.461 43.6694 44.4308 44.9682 44.713C46.267 44.9952 47.0648 45.9855 47.0887 46.5399C46.8834 50.6058 46.9181 53.8097 47.0055 56.0092C47.0592 57.3618 46.3844 58.5489 45.3541 59.2321Z" fill="url(#paint0_radial_985_1623)"></path>
<path d="M46.8955 57.0674C46.8955 57.0674 50.3527 62.6487 56.2548 62.1507C63.6827 61.524 65.2661 54.8045 65.2661 54.8045C65.2661 54.8045 60.0287 52.3779 54.2127 53.3926C48.3966 54.4073 46.8955 57.0674 46.8955 57.0674Z" fill="url(#paint1_radial_985_1623)"></path>
<path d="M37.0737 54.7828C37.0737 54.7828 31.7781 58.662 26.4923 55.9883C19.8401 52.6235 20.8883 45.7999 20.8883 45.7999C20.8883 45.7999 26.6531 45.5128 31.6656 48.6333C36.6781 51.7538 37.0737 54.7828 37.0737 54.7828Z" fill="url(#paint2_radial_985_1623)"></path>
<path d="M58.782 56.6734C55.135 56.9315 52.5815 55.6476 50.8138 53.9132L50.8132 53.9131C47.8694 51.0248 47.1026 46.8878 47.088 46.5409C47.0642 45.9865 46.2663 44.9962 44.9675 44.714C43.6687 44.4318 42.87 45.462 42.87 45.462C42.6221 45.8673 42.3675 46.2456 42.1075 46.599C42.1073 46.6001 42.1065 46.601 42.1057 46.6026C39.8747 49.6376 37.2643 50.8271 35.1133 51.232C32.6495 51.6963 30.7878 51.1309 30.7878 51.1309C20.3992 48.8753 21.8017 34.818 21.8017 34.818C22.2887 32.9359 24.8271 33.1076 24.8271 33.1076C39.073 34.5791 41.6546 40.0967 43.7882 41.1092C45.9222 42.1224 48.3391 41.7703 48.3391 41.7703C58.958 37.9026 68.9881 42.1729 70.0068 43.6237C71.0261 45.0747 68.5018 55.9845 58.782 56.6734Z" fill="black"></path>
<path d="M42.1974 42.052C41.809 45.9148 38.9536 48.4942 35.7559 49.3213C34.8152 49.5639 33.8452 49.6557 32.8995 49.5838C28.7385 49.2676 26.3308 47.3127 24.4547 43.7168C23.0382 41.0027 23.3632 35.7912 23.3632 35.7912C25.1338 35.3122 26.9364 35.2643 28.6906 35.4962C35.8517 36.4418 42.1974 42.052 42.1974 42.052Z" fill="#2B2524"></path>
<path d="M69.1529 44.6963C69.1529 44.6963 67.6451 50.1468 65.3155 52.1328C64.8748 52.5084 64.4306 52.8499 63.982 53.155C61.2892 54.9884 58.4222 55.5295 55.0131 54.4443C51.0364 53.1781 47.9394 48.2651 49.3456 43.4425C49.3456 43.4425 52.6896 42.2601 56.9451 41.9156C60.8756 41.5971 65.5841 41.9932 69.1529 44.6963Z" fill="#2B2524"></path>
<path d="M42.1982 42.0518C41.8098 45.9147 38.9544 48.494 35.7567 49.3211L28.6914 35.4961C35.8524 36.4416 42.1982 42.0518 42.1982 42.0518Z" fill="url(#paint3_linear_985_1623)"></path>
<defs>
<radialGradient id="paint0_radial_985_1623" cx="0" cy="0" r="1" gradientTransform="matrix(6.21156 1.20794 -1.20748 6.21393 43.1001 52.1261)" gradientUnits="userSpaceOnUse">
<stop stop-color="#DC9782"></stop>
<stop offset="1" stop-color="#DA9581" stop-opacity="0"></stop>
</radialGradient>
<radialGradient id="paint1_radial_985_1623" cx="0" cy="0" r="1" gradientTransform="matrix(0.32635 3.80622 -8.62922 0.74047 55.641 57.424)" gradientUnits="userSpaceOnUse">
<stop stop-color="#DC9782" stop-opacity="0.7"></stop>
<stop offset="1" stop-color="#DA9581" stop-opacity="0"></stop>
</radialGradient>
<radialGradient id="paint2_radial_985_1623" cx="0" cy="0" r="1" gradientTransform="matrix(-1.72798 3.40674 7.72349 3.92052 28.8311 51.836)" gradientUnits="userSpaceOnUse">
<stop stop-color="#DC9782" stop-opacity="0.7"></stop>
<stop offset="1" stop-color="#DA9581" stop-opacity="0"></stop>
</radialGradient>
<linearGradient id="paint3_linear_985_1623" x1="35.2163" y1="21.6281" x2="35.5296" y2="45.1183" gradientUnits="userSpaceOnUse">
<stop stop-color="white"></stop>
<stop offset="0.98281" stop-color="white" stop-opacity="0"></stop>
</linearGradient>
</defs>
</svg>