<svg width="512" height="512" viewBox="0 0 512 512" fill="none" xmlns="http://www.w3.org/2000/svg">
  <path
    fill="#c9bfa8"
    d="M38.992 42.84a7.723 7.723 0 0 1-7.265-5.107 7.722 7.722 0 0 1 4.647-9.883L68.03 16.444a7.723 7.723 0 0 1 5.236 14.53L41.609 42.381a7.692 7.692 0 0 1-2.617.459zM62.581 76.511a7.721 7.721 0 0 1-6.503-11.876l19.135-29.994a7.722 7.722 0 1 1 13.02 8.307L69.098 72.942a7.715 7.715 0 0 1-6.517 3.569z"
  />
  <path
    fill="#e3dcc9"
    d="M121.948 276.016s27.637 72.5.756 91.11c-13.597 9.414-43.483 24.888-54.647 35.966-7.168 7.113-2.134 19.34 7.964 19.365l53.628.132c18.325.045 36.415-4.212 52.738-12.542 26.58-13.563 62.419-39.576 76.033-85.008z"
  />
  <path
    fill="#e3dcc9"
    d="M480.697 354.34c.625-21.492-6.902-42.495-21.194-58.56-54.344-63.219-185.243-40.515-231.495-114.791-40.411-50.987-1.287-107.243-32.058-149.643C180.634 13.92 170.808.396 108.174.396 99.716 1.899 66.59-4.1 61.796 6.212a13.06 13.06 0 0 0 .339 14.974c63.066 76.152 10.821 60.009 7.713 144.573-5.159 56.561-.686 87.609 21.009 140.13 42.59 114.409 164.866 85.865 261.538 87.593 8.02.143 11.06 10.736 4.251 14.976l-.166.103c-27.992 18.259-62.495 19.128-94.316 12.415-19.662-.15-6.349 31.567 4.419 41.622 2.7 2.58 3.492 6.569 1.93 9.96-6.352 12.954-7.239 47.959 11.899 37.53 22.129-18.871 48.269-43.172 78.175-47.431 61.074-4.576 115.323-16.059 121.561-89.683l.012-.005c.255-4.833.34-13.681.537-18.629z"
  />
  <path
    fill="#c9bfa8"
    d="M459.503 295.78c-54.344-63.219-185.243-40.515-231.495-114.791-40.411-50.987-1.287-107.243-32.058-149.643C181.073 14.42 171.371 1.176 113.429.43c21.457 5.639 29.112 15.806 39.094 27.713 30.771 44.45-8.353 115.782 32.058 169.235 46.252 77.867 177.151 54.065 231.495 120.341 14.292 16.841 21.819 38.86 21.194 61.391-.197 5.187-.282 14.463-.538 19.529l-.012.005c-1.91 23.627-8.324 41.141-18.051 54.22 33.193-10.542 57.432-32.149 61.478-79.893l.012-.005c.256-4.832.341-13.68.538-18.628.625-21.49-6.902-42.494-21.194-58.558z"
  />
  <path
    fill="#c9bfa8"
    d="M124.11 46.385a7.722 7.722 0 0 1-7.722-7.722v-6.067c0-4.265 3.457-7.722 7.722-7.722s7.722 3.457 7.722 7.722v6.067a7.722 7.722 0 0 1-7.722 7.722z"
  />
</svg>
