<svg xmlns="http://www.w3.org/2000/svg" viewBox="0 0 463.988 463.988" fill="none">
  <path fill="#c9bfa8" d="M421.38 129.553c7.073 81.041 29.791 172.168-5.72 207.19 1.97 58.54-65.01 84.46-160.53 82.41-12.82-.28-20.91-9.41-22.73-19.66h-.01c-44.411 8.781-94.075 11.216-121.57 8.91 0 22.58-21.95 33.1-46.28 40.05-11.149 3.349-21.244-2.908-22.13-10.45-1.25-10.72 1.576-21.538 8.526-31.138-16.58-.32-31.956-5.142-44.046-13.232-7.92-5.31-10.7-20.35.88-25.76 49.74-23.21 70.047-18.841 75.527-18.841 14.55-52.9 57.073-52.799 102.753-75.789 32.94-16.58 81.12-46.17 77.66-146.09-3.03-87.64 73.86-148.62 159.1-88.37 51.265-3.976 58.933 64.364-1.43 90.77z"/>
  <path fill="#e3dcc9" d="M253.9 419.103c-12.11-.82-19.74-9.69-21.5-19.61h-.01c-1.78-10.06 2.44-21.2 14.11-26.14 22.063-9.339 86.309-37.142 77.65-59.66 80.664 33.84-24.232 107.657-70.25 105.41zM422.787 38.772c-67.799-20.02-121.617 34.78-119.078 108.381 3.46 99.92-44.72 129.51-77.66 146.09-39.04 19.65-78.875 20.852-94.7 55.84-17.047 37.689-50.298 31.519-63.834 81.141-4.284 15.706-28.028 10.284-24.613-5.633 1.265-5.895 3.962-12.1 8.033-17.725-16.577-.321-31.958-5.143-44.046-13.232-7.92-5.31-10.7-20.35.88-25.76 49.731-23.206 70.042-18.842 75.527-18.841 14.551-52.897 57.074-52.8 102.753-75.789 32.94-16.58 81.12-46.17 77.66-146.09-3.029-87.634 73.847-148.608 159.078-88.382z"/>
  <circle cx="386.81" cy="71.573" r="8" fill="#8a7c60"/>
  <g fill="#c9bfa8">
    <path d="M423.02 146.173c-2.75 1.06-5.61 2.05-8.57 2.96-10.3 3.16-14.71-12.22-4.65-15.31 4.11-1.26 7.97-2.59 11.6-4.05.47 5.43 1.02 10.9 1.62 16.4z"/>
    <path d="M428.73 315.363c-3.01 8.43-7.26 15.65-13.07 21.38-.51-15.72-6.02-33.8-17.26-54.31-5.17-9.42 8.92-17 14.02-7.69 7.78 14.21 13.23 27.79 16.31 40.62z"/>
    <path d="M246.5 373.353c-11.67 4.94-15.89 16.08-14.11 26.14-4.601.91-15.76 2.929-15.76 2.79-3.31-18.73 6.19-36.28 23.63-43.67 17.54-7.41 71.2-31.17 64.49-41.4-4.29-6.53 4.08-17.77 12.01-12.13 29.07 20.71-24.99 49.11-70.26 68.27z"/>
    <path d="M83.296 349.032c.273 0-3.304 9.303-3.897 26.481-.38 10.8-16.36 10.05-15.99-.48.31-8.78 1.37-17.48 3.36-25.9 5.711-.63 11.287-.721 16.527-.101z"/>
  </g>
</svg>
