<svg width="88" height="88" viewBox="0 0 88 88" fill="none" xmlns="http://www.w3.org/2000/svg">
<path d="M67.6444 44.2859C65.1362 54.3904 61.4627 60.5976 57.9338 64.4098C52.5147 70.264 47.4358 70.4715 47.4358 70.4715C44.5288 69.8982 41.9491 69.0795 39.6618 68.0643C39.6587 68.0629 39.6566 68.0621 39.6548 68.0612C39.6522 68.0599 39.6509 68.0594 39.6509 68.0594C19.8097 59.2462 21.951 35.6584 22.8709 29.5419C34.3655 30.9852 62.8728 28.823 69.1522 25.666C69.8193 30.0602 69.676 36.1027 67.6444 44.2859Z" fill="#FDBEB0"></path>
<path d="M43.1949 37.609L45.7718 37.4938C45.7718 37.4938 41.9795 35.7234 40.4993 34.8032C39.0191 33.8831 38.6387 32.4037 36.2094 32.323C33.7801 32.2424 30.192 33.2325 28.3213 32.9034L29.9459 34.1846C29.9459 34.1846 33.2298 34.2495 34.9257 33.8198C36.2078 33.495 37.0825 34.7769 39.2499 35.8851C39.8659 36.2 43.1949 37.609 43.1949 37.609Z" fill="#282828"></path>
<path opacity="0.6" d="M68.3136 41.3443C68.1537 42.122 67.975 42.9211 67.7772 43.7419C67.7432 43.8845 67.7079 44.0275 67.6726 44.1713C67.663 44.2097 67.6539 44.2476 67.6443 44.2859C67.4778 44.9568 67.3061 45.6107 67.1292 46.2476C64.6488 55.2043 61.2281 60.8509 57.9337 64.4098C52.5145 70.264 47.4357 70.4715 47.4357 70.4715C44.5287 69.8982 41.949 69.0795 39.6617 68.0643C39.6586 68.0629 39.6564 68.0621 39.6547 68.0612C39.6521 68.0599 39.6508 68.0594 39.6508 68.0594C25.5342 61.789 22.5452 48.0398 22.3269 38.4253C22.2385 34.5259 22.6054 31.3065 22.8708 29.5419C34.3654 30.9852 62.8727 28.823 69.152 25.666C69.2165 26.091 69.2736 26.5318 69.3215 26.9882C69.712 30.6653 69.546 35.3729 68.3136 41.3443Z" fill="url(#paint0_linear_985_1328)"></path>
<path d="M36.4772 66.4206C20.0489 56.623 22.0033 35.3121 22.8709 29.543C25.0711 29.8193 27.8944 29.9632 31.0664 29.9937C20.7797 44.529 36.3853 66.2924 36.4772 66.4206Z" fill="#A5D6BF"></path>
<path d="M69.5096 25.472C69.4002 25.5374 69.2808 25.6023 69.1522 25.6669C62.8729 28.8239 34.3656 30.9861 22.871 29.5428C20.3902 29.231 18.702 28.7515 18.2004 28.0776C17.8536 27.6111 17.6396 27.0789 17.5494 26.4908C17.3882 25.4446 17.6178 24.2222 18.1821 22.8843C19.9248 18.7521 24.8585 13.5166 31.3309 8.95024C39.2065 3.39383 46.8816 5.07568 49.5363 5.92528C50.1664 6.12711 50.5137 6.2819 50.5137 6.2819C56.6798 3.52244 60.9851 8.6272 62.5155 10.8818C62.9204 11.4782 63.1308 11.8749 63.1308 11.8749C64.2852 11.2166 64.7724 11.3104 64.7724 11.3104C67.5421 10.5239 72.5172 23.6764 69.5096 25.472Z" fill="#C4E8D9"></path>
<path d="M20.284 73.6683C20.5603 73.4058 20.8357 73.1608 21.108 72.939C17.8084 68.8992 14.5572 62.5516 14.0286 53.3168C13.1148 37.35 17.1395 29.8018 18.0294 28.3441C18.1383 28.1653 18.2002 28.0781 18.2002 28.0781C18.6494 28.6819 20.0504 29.1292 22.1199 29.4404C22.3613 29.4766 22.6114 29.5106 22.8707 29.5433C22.1107 34.5966 20.5171 51.574 31.1733 62.294C31.1738 62.2944 31.1742 62.2944 31.1746 62.2948C33.4166 64.5503 36.2012 66.529 39.6507 68.0609C39.6507 68.0609 39.652 68.0613 39.6546 68.0626C39.6564 68.0635 39.6585 68.0644 39.6616 68.0657C40.0185 68.2366 49.2223 72.7114 51.368 81.2979H14.3023C14.3023 81.2979 17.3347 76.4726 20.284 73.6683Z" fill="#B6DDCC"></path>
<path d="M66.0027 81.2968H51.3675C49.2218 72.7103 40.018 68.2355 39.6611 68.0646C41.9485 69.0799 44.5282 69.8986 47.4352 70.4718C47.4352 70.4718 52.514 70.2643 57.9332 64.4102C57.9332 64.4102 56.2917 68.3667 57.5911 70.8981C58.8901 73.4296 66.0027 81.2968 66.0027 81.2968Z" fill="#A3D3BC"></path>
<path d="M52.3712 42.7123C52.3712 42.7123 53.1234 49.2116 54.7647 52.3586C56.406 55.5056 52.9866 57.4212 51.4137 57.4212C50.2104 57.4212 48.8469 56.9039 47.6601 55.8324C46.9425 55.1844 46.9288 54.0646 47.6332 53.4022C47.9345 53.1188 48.3067 52.8339 48.7538 52.6004C48.7538 52.6004 49.0696 46.6131 48.9167 43.4313C48.9167 43.4313 49.1448 40.4532 50.8264 40.5822C52.5079 40.7112 52.3712 42.7123 52.3712 42.7123Z" fill="url(#paint1_radial_985_1328)"></path>
<path d="M42.5469 59.9189C42.5469 59.9189 44.0158 60.1435 45.8964 59.5268C47.7769 58.9102 49.089 60.4695 49.9072 60.5327C50.7254 60.5958 51.4576 59.8327 52.2116 60.0495C52.9657 60.2664 54.4742 61.318 55.3474 61.3388C55.3474 61.3388 54.6751 63.8668 49.6665 63.4429C45.2154 63.0661 42.5469 59.9189 42.5469 59.9189Z" fill="#FC5B5B"></path>
<path d="M48.7543 52.5997C48.7543 52.5997 48.3711 52.3578 47.6416 52.7227C47.6416 52.7227 48.7044 51.4684 48.7543 43.6465H48.5307C48.5307 43.6465 48.7814 49.8265 47.0034 53.5893C47.0034 53.5893 46.2055 55.0259 47.3681 56.0065C48.5307 56.9871 50.3579 57.4658 51.157 57.4124C51.157 57.4124 47.0489 56.8047 47.4365 53.6577C47.4365 53.6577 47.8838 52.8643 48.7543 52.5997Z" fill="url(#paint2_radial_985_1328)"></path>
<path opacity="0.2" d="M63.1303 11.8739C63.1303 11.8739 57.532 15.6793 50.1366 16.7825C37.6391 18.6469 30.1852 17.1075 27.1758 16.2866C27.1758 16.2866 38.4084 18.1851 50.5641 16.0815C55.1405 15.2896 60.6717 11.8879 62.515 10.8809C62.9198 11.4772 63.1303 11.8739 63.1303 11.8739Z" fill="#282828"></path>
<path opacity="0.2" d="M50.5138 6.2824C50.5138 6.2824 47.6622 7.97634 46.154 8.95074C41.23 12.1319 32.8692 10.1617 31.9463 10.0593C31.9463 10.0593 39.5887 11.2597 45.3844 8.74541C46.7799 8.14001 48.2992 6.76933 49.5364 5.92578C50.1665 6.12761 50.5138 6.2824 50.5138 6.2824Z" fill="#282828"></path>
<path opacity="0.2" d="M28.3219 78.697C24.3725 78.2393 21.4433 75.1119 20.2842 73.6668C20.5604 73.4044 20.8359 73.1594 21.1082 72.9375C24.213 76.7393 27.3606 78.4978 28.3219 78.697Z" fill="#282828"></path>
<path opacity="0.2" d="M68.7385 19.7246C68.7385 19.7246 69.5592 23.3505 66.892 24.0347C64.2249 24.7188 52.7756 26.203 48.4131 25.6661C44.0506 25.1293 39.6055 25.6661 39.6055 25.6661C39.6055 25.6661 46.2788 25.5398 48.4131 26.2239C50.5475 26.908 67.267 26.4976 68.8576 23.9662C70.4482 21.4349 68.7385 19.7246 68.7385 19.7246Z" fill="#282828"></path>
<path opacity="0.2" d="M27.175 27.7824C27.1079 27.8099 24.7927 28.7432 21.7397 28.6029C19.4798 28.4987 18.1974 27.5924 17.5494 26.4917C17.3882 25.4454 17.6178 24.2231 18.1821 22.8852L18.678 21.8438C18.536 22.155 17.2095 25.1782 18.6902 26.5204C20.2516 27.9354 24.8663 28.2436 27.175 27.7824Z" fill="#282828"></path>
<path opacity="0.2" d="M54.8896 75.0373H54.0006L53.0773 75.4136C53.0773 75.4136 52.7354 75.6188 52.2909 75.8178C51.9429 75.9734 50.9036 75.9476 50.4685 75.929C49.6803 74.2008 48.9464 73.0394 48.9464 73.0394C52.8182 72.8154 55.6171 70.9234 57.1532 69.5615C56.8181 67.1993 57.9332 64.5117 57.9332 64.5117C52.514 70.3658 47.4352 70.5733 47.4352 70.5733C44.5282 70.0001 41.9485 69.1814 39.6611 68.1661C40.018 68.337 49.2218 72.8119 51.3675 81.3984H52.2116C51.9491 79.7387 51.3951 78.1028 50.8168 76.7243L50.9249 76.8845H51.3675L52.1883 76.4398L52.8319 75.8178L53.6928 75.4136C53.6928 75.4136 53.6928 75.4136 54.4109 75.3794C55.129 75.3451 56.0864 75.0612 56.0864 75.0612L56.907 74.8321L57.4541 74.2163L56.5309 74.6952L54.8896 75.0373Z" fill="#282828"></path>
<path opacity="0.2" d="M39.6616 79.7244C39.6616 79.7244 39.5371 77.5352 37.8274 76.5089C36.1177 75.4827 28.7319 71.5148 27.6377 67.6836C27.6377 67.6836 31.399 71.7884 34.75 73.704C38.101 75.6196 40.5384 76.5774 39.6616 79.7244Z" fill="#282828"></path>
<path opacity="0.2" d="M22.1198 29.4404C21.6191 29.5433 21.3232 29.5433 21.3232 29.5433C18.7357 29.498 18.0293 28.3441 18.0293 28.3441C18.1382 28.1653 18.2001 28.0781 18.2001 28.0781C18.6494 28.6819 20.0504 29.1292 22.1198 29.4404Z" fill="#282828"></path>
<path opacity="0.2" d="M69.3212 26.9882C67.5154 27.3596 64.0449 28.0039 57.386 29.0972C46.7806 30.8382 31.8935 30.3803 26.2422 30.1198C24.6328 30.0456 23.2104 31.1492 22.8726 32.7251C22.323 35.2893 22.3366 38.3909 22.3366 38.3909L22.3266 38.4253C22.4917 45.6905 24.2383 55.3163 31.173 62.2926C16.7945 52.6615 22.8704 29.5419 22.8704 29.5419C34.365 30.9852 62.8723 28.823 69.1517 25.666C69.2161 26.091 69.2732 26.5318 69.3212 26.9882Z" fill="#282828"></path>
<path d="M55.7709 37.3323L53.5566 37.0184C53.5566 37.0184 56.9447 35.546 58.2824 34.7429C59.6201 33.9398 60.0468 32.4942 62.1469 32.6013C64.2469 32.7085 67.2748 33.9727 68.9098 33.7889L67.4234 34.9409C67.4234 34.9409 64.5875 34.7521 63.1539 34.1928C62.0701 33.7699 61.2304 34.9804 59.2876 35.918C58.7353 36.1845 55.7709 37.3323 55.7709 37.3323Z" fill="#282828"></path>
<path d="M69.1572 41.8947C68.7183 42.6759 68.1549 43.4135 67.4385 44.0691C60.1486 50.7393 52.3907 45.4162 52.3907 45.4162L49.7774 45.4977C49.7774 45.4977 39.4428 51.8675 30.0965 47.1625C24.3653 44.2775 23.2258 37.9979 23.0097 35.1247C22.95 34.3309 23.5997 33.6652 24.3945 33.7079C32.2601 34.1295 39.6611 34.1425 47.9197 41.7465C48.9425 42.6881 49.2771 42.9431 51.1126 42.9423C52.948 42.9409 54.0971 41.8228 54.0971 41.8228C59.0269 33.3243 69.433 31.1895 69.8321 31.5086C70.1707 31.7794 71.6175 37.5184 69.1572 41.8947Z" fill="black"></path>
<path d="M68.1918 42.3741C66.9442 44.4094 64.5222 45.7638 61.9634 46.3327C58.6307 47.0747 55.0653 46.4853 53.5566 44.3375C53.5566 44.3375 56.6218 37.4389 63.7849 34.0735C65.3144 33.3546 67.0309 32.7966 68.9439 32.502C68.9439 32.502 71.0639 37.6878 68.1918 42.3741Z" fill="#282828"></path>
<path d="M48.6668 44.7655C48.6668 44.7655 43.7967 47.8728 36.6423 47.5528C35.5229 47.5027 34.3472 47.3688 33.1257 47.1256C24.0989 45.3296 24.3041 34.9648 24.3041 34.9648C24.3041 34.9648 32.7775 34.9648 38.734 36.9954C39.8056 37.3607 40.7956 37.7915 41.6401 38.3002C45.616 40.6939 48.6668 44.7655 48.6668 44.7655Z" fill="#282828"></path>
<path opacity="0.2" d="M67.7767 43.7425C67.7428 43.8851 67.7075 44.028 67.6722 44.1719C67.6626 44.2103 67.6534 44.2482 67.6438 44.2865C67.4774 44.9574 67.3057 45.6113 67.1288 46.2482C66.1914 46.7125 65.0741 47.1659 63.7459 47.5748C57.1123 49.6154 52.5764 45.9845 52.5764 45.9845L49.7949 46.1497C46.3755 48.7492 37.6902 51.5544 30.0992 47.9968C22.5082 44.4391 23.0098 35.125 23.0098 35.125C23.2259 37.9982 24.3654 44.2778 30.0966 47.1628C39.4429 51.8678 49.7775 45.498 49.7775 45.498L52.3908 45.4165C52.3908 45.4165 60.1487 50.7396 67.4386 44.0695C67.5554 43.9627 67.6682 43.8537 67.7767 43.7425Z" fill="#282828"></path>
<g opacity="0.2">
<path d="M46.8439 66.043C47.6295 66.2973 48.3824 66.4764 49.1964 66.5138C49.6342 66.5384 50.0369 66.5164 50.4971 66.518L50.5108 66.5593C49.5395 67.2572 48.0834 67.2243 47.157 66.4616C47.0259 66.3489 46.9046 66.2266 46.8154 66.076L46.8439 66.043Z" fill="black"></path>
</g>
<path d="M63.7849 34.0723L61.9634 46.3315C58.6307 47.0735 55.0653 46.4841 53.5566 44.3363C53.5566 44.3363 56.6218 37.4377 63.7849 34.0723Z" fill="url(#paint3_linear_985_1328)"></path>
<path d="M38.734 36.9954L36.6423 47.5528C35.5229 47.5027 34.3472 47.3688 33.1257 47.1256C24.0989 45.3296 24.3041 34.9648 24.3041 34.9648C24.3041 34.9648 32.7775 34.9648 38.734 36.9954Z" fill="url(#paint4_linear_985_1328)"></path>
<defs>
<linearGradient id="paint0_linear_985_1328" x1="74.7233" y1="51.4702" x2="46.9571" y2="45.7277" gradientUnits="userSpaceOnUse">
<stop stop-color="#231F20"></stop>
<stop offset="0.25402" stop-color="#141213" stop-opacity="0.72711"></stop>
<stop offset="0.6282" stop-color="#050505" stop-opacity="0.32514"></stop>
<stop offset="0.93086" stop-opacity="0"></stop>
</linearGradient>
<radialGradient id="paint1_radial_985_1328" cx="0" cy="0" r="1" gradientTransform="matrix(-8.06317 -2.33934 6.28788 -21.6895 57.2863 53.0505)" gradientUnits="userSpaceOnUse">
<stop stop-color="#DC9782"></stop>
<stop offset="0.99789" stop-color="#DA9581" stop-opacity="0"></stop>
</radialGradient>
<radialGradient id="paint2_radial_985_1328" cx="0" cy="0" r="1" gradientTransform="matrix(-6.24436 -1.81166 4.86953 -16.797 52.2976 53.8432)" gradientUnits="userSpaceOnUse">
<stop stop-color="#DC9782"></stop>
<stop offset="0.99789" stop-color="#DA9581" stop-opacity="0"></stop>
</radialGradient>
<linearGradient id="paint3_linear_985_1328" x1="77.7391" y1="28.2661" x2="58.3115" y2="43.4467" gradientUnits="userSpaceOnUse">
<stop stop-color="white"></stop>
<stop offset="0.98281" stop-color="white" stop-opacity="0"></stop>
</linearGradient>
<linearGradient id="paint4_linear_985_1328" x1="48.1965" y1="27.3994" x2="30.3767" y2="41.3236" gradientUnits="userSpaceOnUse">
<stop stop-color="white"></stop>
<stop offset="0.98281" stop-color="white" stop-opacity="0"></stop>
</linearGradient>
</defs>
</svg>