<svg xmlns="http://www.w3.org/2000/svg" viewBox="0 0 32 32" fill-rule="evenodd">
  <defs>
    <linearGradient id="m" x1="0" y1="0" x2="1" y2="1">
      <stop offset="0" stop-color="#f0f2f4"/>
      <stop offset="1" stop-color="#cfd3d7"/>
    </linearGradient>
  </defs>
  <rect width="32" height="32" rx="8" fill="url(#m)"/>
  <g transform="translate(2 2) scale(1.1667)" fill="#0b0c0e">
    <path d="M20 8.75a.75.75 0 0 1 0-1.5h2a.75.75 0 0 1 0 1.5zM4 7.25a.75.75 0 0 1 0 1.5H2a.75.75 0 0 1 0-1.5zM20 16.25a.75.75 0 0 1 0-1.5h2a.75.75 0 0 1 0 1.5zM4 14.75a.75.75 0 0 1 0 1.5H2a.75.75 0 0 1 0-1.5z"/>
    <path d="M4.75 18.25H4a.75.75 0 0 1-.75-.75V14a.75.75 0 0 1 .75-.75h.75zM4.75 10.75H4a.75.75 0 0 1-.75-.75V6.5A.75.75 0 0 1 4 5.75h.75zM19.25 13.25H20a.75.75 0 0 1 .75.75v3.5a.75.75 0 0 1-.75.75h-.75zM19.25 5.75H20a.75.75 0 0 1 .75.75V10a.75.75 0 0 1-.75.75h-.75zM18.25 5.5v13A2.25 2.25 0 0 1 16 20.75H8a2.25 2.25 0 0 1-2.25-2.25v-13A2.25 2.25 0 0 1 8 3.25h8a2.25 2.25 0 0 1 2.25 2.25zm-5.424 2.711a.188.188 0 0 0-.349-.118l-2.662 4.564a.19.19 0 0 0-.001.189.19.19 0 0 0 .163.094h1.553l-.356 2.849a.188.188 0 0 0 .349.118l2.662-4.564a.19.19 0 0 0 .001-.189.19.19 0 0 0-.163-.094H12.47z"/>
  </g>
</svg>
